<?xml version="1.0" encoding="utf-8"?>
<!-- Generator: Adobe Illustrator 16.0.0, SVG Export Plug-In . SVG Version: 6.00 Build 0)  -->
<!DOCTYPE svg PUBLIC "-//W3C//DTD SVG 1.1//EN" "http://www.w3.org/Graphics/SVG/1.1/DTD/svg11.dtd">
<svg version="1.1" id="Capa_1" xmlns="http://www.w3.org/2000/svg" xmlns:xlink="http://www.w3.org/1999/xlink" x="0px" y="0px"
	 width="200px" height="68.167px" viewBox="0 131.833 200 68.167" enable-background="new 0 131.833 200 68.167"
	 xml:space="preserve">
<g>
	<g>
		<polygon fill="#C12E19" points="33.737,153.297 21.707,153.297 20.063,154.018 20.063,154.176 32.093,154.176 		"/>
		<polygon fill="#82ABE1" points="57.169,153.297 45.76,153.297 44.114,154.018 44.114,154.176 56.145,154.176 		"/>
		<g>
			<polygon fill="#82ABE1" points="57.169,162.713 56.141,163.391 55.523,154.018 56.141,154.018 57.169,153.297 			"/>
		</g>
		<linearGradient id="SVGID_1_" gradientUnits="userSpaceOnUse" x1="53.8115" y1="178.873" x2="62.668" y2="172.2696">
			<stop  offset="0" style="stop-color:#DAC9B5"/>
			<stop  offset="0.5943" style="stop-color:#FFFFFF"/>
		</linearGradient>
		<polygon fill="url(#SVGID_1_)" points="56.141,178.537 63.586,176.328 56.9,175.107 52.504,175.107 		"/>
		<linearGradient id="SVGID_2_" gradientUnits="userSpaceOnUse" x1="29.7603" y1="178.874" x2="38.6169" y2="172.2705">
			<stop  offset="0" style="stop-color:#DAC9B5"/>
			<stop  offset="0.5943" style="stop-color:#FFFFFF"/>
		</linearGradient>
		<polygon fill="url(#SVGID_2_)" points="32.088,178.537 39.534,176.328 32.849,175.107 28.452,175.107 		"/>
		<g>
			<polygon fill="#82ABE1" points="57.169,177.859 56.141,178.537 55.523,169.162 56.141,169.162 57.169,168.443 			"/>
		</g>
		<polygon fill="#82ABE1" points="57.169,168.438 45.76,168.438 44.114,169.158 44.114,169.641 56.141,169.641 56.141,169.158 		"/>
		<linearGradient id="SVGID_3_" gradientUnits="userSpaceOnUse" x1="77.8633" y1="178.873" x2="86.7198" y2="172.2696">
			<stop  offset="0" style="stop-color:#DAC9B5"/>
			<stop  offset="0.5943" style="stop-color:#FFFFFF"/>
		</linearGradient>
		<polygon fill="url(#SVGID_3_)" points="80.192,178.537 87.638,176.328 80.952,175.107 76.556,175.107 		"/>
		<g>
			<polygon fill="#C12E19" points="33.733,177.611 32.088,178.537 30.435,154.018 32.088,154.018 33.733,153.297 			"/>
		</g>
		<g>
			<polygon fill="#ECC65A" points="80.707,177.963 80.192,178.537 79.062,154.018 80.707,153.297 			"/>
		</g>
		<polygon fill="#ECC65A" points="80.707,153.297 69.372,153.297 68.167,154.018 68.167,154.176 80.197,154.176 		"/>
		<g>
			<g>
				<g>
					<polygon fill="#82ABE1" points="115.756,177.963 116.271,178.537 117.402,154.018 115.756,153.297 					"/>
				</g>
			</g>
		</g>
		<polygon fill="#82ABE1" points="115.756,153.297 127.092,153.297 128.297,154.018 128.297,154.176 116.268,154.176 		"/>
		<path fill="#C10B19" d="M20.063,178.537v-24.52h12.025v24.52H20.063z"/>
		<path fill="#ECBE2F" d="M68.167,178.537v-24.52h12.025v24.52H68.167z"/>
		<linearGradient id="SVGID_4_" gradientUnits="userSpaceOnUse" x1="125.9678" y1="178.873" x2="134.8244" y2="172.2695">
			<stop  offset="0" style="stop-color:#DAC9B5"/>
			<stop  offset="0.5943" style="stop-color:#FFFFFF"/>
		</linearGradient>
		<polygon fill="url(#SVGID_4_)" points="128.297,178.537 135.742,176.328 129.057,175.107 124.66,175.107 		"/>
		<linearGradient id="SVGID_5_" gradientUnits="userSpaceOnUse" x1="101.9053" y1="178.8018" x2="110.7618" y2="172.1983">
			<stop  offset="0" style="stop-color:#DAC9B5"/>
			<stop  offset="0.5943" style="stop-color:#FFFFFF"/>
		</linearGradient>
		<polygon fill="url(#SVGID_5_)" points="104.234,178.465 111.68,176.256 104.994,175.035 100.598,175.035 		"/>
		<path fill="#66ABE1" d="M116.271,178.537v-24.52h12.025v24.52H116.271z"/>
		<g>
			<rect x="44.114" y="169.162" fill="#66ABE1" width="12.026" height="9.375"/>
			<rect x="44.114" y="154.018" fill="#66ABE1" width="12.026" height="9.373"/>
		</g>
		<polygon fill="#B2CD37" points="103.941,153.297 92.538,153.297 92.229,154.018 92.229,154.176 104.234,154.176 104.234,154.018 
					"/>
		<polygon fill="#B2CD37" points="104.131,175.807 92.538,164.059 92.229,164.777 92.229,165.473 104.234,177.111 104.234,176.801 
					"/>
		<g>
			<polygon fill="#A0BE37" points="92.229,164.777 92.229,178.465 104.234,178.465 104.234,176.801 			"/>
			<polygon fill="#A0BE37" points="104.234,154.018 92.229,154.018 92.229,155.752 104.234,167.775 			"/>
		</g>
		<polygon fill="#C12E19" points="162.727,153.297 174.756,153.297 176.402,154.018 176.402,154.176 164.371,154.176 		"/>
		<g>
			<polygon fill="#C12E19" points="162.73,177.611 164.375,178.537 166.029,154.018 164.375,154.018 162.73,153.297 			"/>
		</g>
		<linearGradient id="SVGID_6_" gradientUnits="userSpaceOnUse" x1="174.1631" y1="178.873" x2="183.0196" y2="172.2696">
			<stop  offset="0" style="stop-color:#DAC9B5"/>
			<stop  offset="0.5943" style="stop-color:#FFFFFF"/>
		</linearGradient>
		<polygon fill="url(#SVGID_6_)" points="176.492,178.537 183.938,176.328 177.252,175.107 172.855,175.107 		"/>
		<linearGradient id="SVGID_7_" gradientUnits="userSpaceOnUse" x1="150.0205" y1="178.874" x2="158.877" y2="172.2706">
			<stop  offset="0" style="stop-color:#DAC9B5"/>
			<stop  offset="0.5943" style="stop-color:#FFFFFF"/>
		</linearGradient>
		<polygon fill="url(#SVGID_7_)" points="152.35,178.537 159.795,176.328 153.109,175.107 148.713,175.107 		"/>
		<path fill="#C10B19" d="M164.375,178.537v-24.52h12.027v24.52H164.375z"/>
		<g>
			<polygon fill="#ECC65A" points="139.295,153.297 150.705,153.297 152.35,154.018 152.35,154.176 140.318,154.176 			"/>
			<g>
				<polygon fill="#ECC65A" points="139.295,177.859 140.324,178.537 140.939,154.018 140.324,154.018 139.295,153.297 				"/>
			</g>
			<rect x="140.324" y="154.018" fill="#ECBE2F" width="12.025" height="24.52"/>
		</g>
	</g>
	<g>
		<path d="M115.466,178.535v-25.238h12.38v25.238h-1.439v-23.799h-9.5v23.799H115.466z"/>
		<path d="M77.767,177.096v-22.359h-9.501v22.359H77.767z M66.826,178.535v-25.238h12.379v25.238H66.826z"/>
		<g>
			<g>
				<polygon points="54.885,154.736 54.885,153.297 45.376,153.297 43.943,153.297 43.943,154.73 43.943,162.953 43.943,164.387 
					45.376,164.387 54.885,164.387 54.885,162.945 45.384,162.945 45.384,154.736 				"/>
			</g>
			<g>
				<polygon points="54.885,168.887 54.885,167.447 45.376,167.447 43.943,167.447 43.943,168.881 43.943,177.104 43.943,178.535 
					45.376,178.535 54.885,178.535 54.885,177.096 45.384,177.096 45.384,168.887 				"/>
			</g>
		</g>
		<g>
			<g>
				<polygon points="141.225,178.535 139.785,178.535 139.785,168.396 146.766,168.396 146.766,169.838 141.225,169.838 				"/>
			</g>
			<polygon points="152.164,178.535 150.723,178.535 150.723,169.432 147.525,166.232 150.723,163.035 150.723,154.736 
				141.225,154.736 141.225,163.527 139.785,163.527 139.785,153.297 152.164,153.297 152.164,163.631 149.564,166.232 
				152.164,168.832 			"/>
		</g>
		<polygon points="176.342,153.297 164.375,153.297 164.375,154.734 170.04,154.734 170.04,178.535 171.477,178.535 
			171.477,154.734 176.342,154.734 		"/>
		<g>
			<polygon points="21.502,177.092 31.003,177.092 31.003,178.533 21.495,178.533 20.063,178.533 20.063,177.1 20.063,153.301 
				21.495,153.301 			"/>
		</g>
		<g>
			<g>
				<polygon points="104.523,169.488 92.145,157.121 92.145,155.084 103.086,166.02 103.086,153.297 104.523,153.297 				"/>
			</g>
			<g>
				<polygon points="92.145,162.346 104.523,174.713 104.523,176.748 93.584,165.813 93.584,178.535 92.145,178.535 				"/>
			</g>
		</g>
	</g>
</g>
</svg>
